<svg xmlns="http://www.w3.org/2000/svg" xmlns:xlink="http://www.w3.org/1999/xlink" width="20" height="17" viewBox="0 0 20 17"><defs><path id="kr50a" d="M1122.59 5749.76c0 1-.6 1.8-1.34 1.8-.74 0-1.34-.8-1.34-1.8s.6-1.8 1.34-1.8c.74 0 1.34.8 1.34 1.8zm4.86-2.62c0 7.2-6.14 7.32-7.69 7.32H1116.2c-1.54 0-7.68-.11-7.68-7.32 0-1.66.58-2.88 1.54-3.89-.15-.36-.16-2.45.65-4.44 0 0 1.86.2 4.69 2.09.59-.16 1.59-.24 2.59-.24 1 0 2 .08 2.6.24 2.81-1.89 4.68-2.09 4.68-2.09.8 2 .8 4.08.65 4.44a5.37 5.37 0 0 1 1.54 3.89zm-2.54 2.3c0-.87-.32-1.7-1.07-2.37-1.27-1.13-3.4-.53-5.83-.53h-.06c-2.43 0-4.56-.6-5.83.53a3.08 3.08 0 0 0-1.08 2.38c0 3.67 3.03 4.13 6.9 4.13h.07c3.88 0 6.9-.46 6.9-4.13zm-8.87.32c0 1-.6 1.8-1.33 1.8-.74 0-1.34-.8-1.34-1.8s.6-1.8 1.34-1.8c.74 0 1.33.8 1.33 1.8z"/></defs><g><g transform="translate(-1108 -5738)"><use fill="#fff" xlink:href="#kr50a"/></g></g></svg>