<svg xmlns="http://www.w3.org/2000/svg" xmlns:xlink="http://www.w3.org/1999/xlink" width="38" height="38" viewBox="0 0 38 38"><defs><path id="sdjra" d="M1282 2195.77v11.99a3.32 3.32 0 0 1-1.94 3.03l-15.13 5.86-.02.01c-1.23.45-2.59.45-3.82 0h-.02l-15.13-5.87a3.32 3.32 0 0 1-1.94-3.03v-11.99c0-1.84 1.5-3.34 3.34-3.34h1.9l10.63-8.93a3.33 3.33 0 0 1 3.13-4.5 3.34 3.34 0 0 1 3.13 4.5l10.63 8.93h1.9c1.84 0 3.34 1.5 3.34 3.34zm-20.11-13.43a1.11 1.11 0 1 0 2.23 0 1.11 1.11 0 0 0-2.23 0zm-9.2 10.1h20.61l-8.6-7.23a3.32 3.32 0 0 1-3.4 0zm27.08 3.33c0-.61-.5-1.11-1.11-1.11h-31.32c-.61 0-1.11.5-1.11 1.11v11.99c0 .4.22.78.57.97l15.06 5.84c.74.27 1.54.27 2.28 0l15.06-5.84c.35-.2.57-.56.57-.97zm-22.34 2.23v6.68a3.34 3.34 0 0 1-6.68 0 1.11 1.11 0 1 1 2.23 0 1.11 1.11 0 0 0 2.23 0v-5.57h-2.23a1.11 1.11 0 0 1 0-2.22h3.34c.62 0 1.11.5 1.11 1.1zm8.91 2.23v4.45a3.34 3.34 0 0 1-6.68 0v-4.45a3.34 3.34 0 0 1 6.68 0zm-2.23 0a1.11 1.11 0 0 0-2.22 0v4.45a1.11 1.11 0 0 0 2.22 0zm10.28 2.22a3.34 3.34 0 0 1-2.49 5.57h-2.22c-.62 0-1.11-.5-1.11-1.11V2198c0-.62.5-1.11 1.11-1.11h2.23a3.34 3.34 0 0 1 2.48 5.56zm-1.37 2.23c0-.61-.5-1.11-1.11-1.11h-1.12v2.22h1.12c.61 0 1.11-.5 1.11-1.11zm0-4.45c0-.62-.5-1.12-1.11-1.12h-1.12v2.23h1.12c.61 0 1.11-.5 1.11-1.11z"/><linearGradient id="sdjrb" x1="1244" x2="1282" y1="2217" y2="2179" gradientUnits="userSpaceOnUse"><stop offset="0" stop-color="#fe5582"/><stop offset="1" stop-color="#fe868a"/></linearGradient></defs><g><g transform="translate(-1244 -2179)"><use xlink:href="#sdjra"/><use fill="url(#sdjrb)" xlink:href="#sdjra"/></g></g></svg>