<svg xmlns="http://www.w3.org/2000/svg" xmlns:xlink="http://www.w3.org/1999/xlink" width="18" height="18" viewBox="0 0 18 18"><defs><path id="edxga" d="M1285.93 5744.09v10.87c0 .15-.13.27-.28.27h-3.41a.27.27 0 0 1-.27-.27v-10.87c0-.15.12-.27.27-.27h3.41c.15 0 .28.12.28.27zm.27-3.44c0 1.23-1.01 2.23-2.25 2.23s-2.25-1-2.25-2.23a2.24 2.24 0 0 1 2.25-2.24c1.24 0 2.25 1 2.25 2.24zm12.5 8.35v5.96c0 .15-.13.27-.28.27h-3.4a.27.27 0 0 1-.28-.27v-5.29c0-1.47-.11-2.6-1.5-2.6-1.27 0-1.77.7-1.77 2.51v5.38c0 .15-.12.27-.27.27h-3.4a.27.27 0 0 1-.28-.27v-10.87c0-.15.12-.27.27-.27h3.27c.15 0 .27.12.27.27v.7a4.02 4.02 0 0 1 3-1.24c3.85 0 4.37 2.75 4.37 5.45z"/></defs><g><g transform="translate(-1281 -5738)"><use fill="#fff" xlink:href="#edxga"/></g></g></svg>