<svg xmlns="http://www.w3.org/2000/svg" xmlns:xlink="http://www.w3.org/1999/xlink" width="17" height="17" viewBox="0 0 17 17"><defs><path id="nf4la" d="M1553.23 860.74v10.99c0 .15-.12.27-.27.27h-3.41a.27.27 0 0 1-.28-.27v-10.99c0-.15.12-.27.28-.27h3.4c.16 0 .28.12.28.27zm.27-3.48a2.26 2.26 0 1 1-4.5 0 2.26 2.26 0 0 1 4.5 0zm12.5 8.44v6.03c0 .15-.12.27-.27.27h-3.4a.27.27 0 0 1-.28-.27v-5.34c0-1.5-.11-2.64-1.5-2.64-1.27 0-1.77.71-1.77 2.54v5.44c0 .15-.12.27-.27.27h-3.41a.27.27 0 0 1-.27-.27v-10.99c0-.15.12-.27.27-.27h3.27c.15 0 .27.12.27.27v.71a4 4 0 0 1 3-1.26c3.85 0 4.37 2.79 4.37 5.51z"/><linearGradient id="nf4lb" x1="1557.01" x2="1558" y1="872" y2="855" gradientUnits="userSpaceOnUse"><stop offset="0" stop-color="#fe5582"/><stop offset="1" stop-color="#fe868a"/></linearGradient></defs><g><g transform="translate(-1549 -855)"><use fill="#fff" xlink:href="#nf4la"/><use fill="url(#nf4lb)" xlink:href="#nf4la"/></g></g></svg>