<svg xmlns="http://www.w3.org/2000/svg" xmlns:xlink="http://www.w3.org/1999/xlink" width="21" height="18" viewBox="0 0 21 18"><defs><path id="5dpea" d="M967.2 5740.33l2.54 9.36a2.1 2.1 0 0 1-1.52 2.55l-13.25 3.52c-1.14.3-2.31-.36-2.61-1.46l-2.54-9.37a2.1 2.1 0 0 1 1.52-2.55l13.26-3.51c1.14-.3 2.3.35 2.6 1.46zm.8 9.82l-2.2-8.12-4.62 6.72a.7.7 0 0 1-.4.28l-1 .27a.7.7 0 0 1-.49-.05l-7.38-3.54 2.2 8.12c.03.13.2.2.38.16l13.25-3.52c.17-.04.29-.2.25-.32zm-3.72-9.3l-11.66 3.1 7.19 3.45z"/></defs><g><g transform="translate(-949 -5738)"><use fill="#fff" xlink:href="#5dpea"/></g></g></svg>